<mxfile host="app.diagrams.net" agent="Mozilla/5.0 (X11; Linux x86_64) AppleWebKit/537.36 (KHTML, like Gecko) Chrome/126.0.0.0 Safari/537.36" version="24.7.6">
  <diagram name="Page-1" id="52a04d89-c75d-2922-d76d-85b35f80e030">
    <mxGraphModel dx="1397" dy="768" grid="1" gridSize="10" guides="1" tooltips="1" connect="1" arrows="1" fold="1" page="1" pageScale="1" pageWidth="1100" pageHeight="850" background="none" math="0" shadow="0">
      <root>
        <mxCell id="0" />
        <mxCell id="1" parent="0" />
        <mxCell id="j2VeNZZgho7HhLa_vhQd-6" value="/ (forms), it&#39;s a simple forms that only have 2 input, model and id." style="rounded=0;whiteSpace=wrap;html=1;" vertex="1" parent="1">
          <mxGeometry x="400" y="175" width="170" height="130" as="geometry" />
        </mxCell>
        <mxCell id="j2VeNZZgho7HhLa_vhQd-20" style="edgeStyle=orthogonalEdgeStyle;rounded=0;orthogonalLoop=1;jettySize=auto;html=1;" edge="1" parent="1" source="j2VeNZZgho7HhLa_vhQd-13" target="j2VeNZZgho7HhLa_vhQd-6">
          <mxGeometry relative="1" as="geometry">
            <mxPoint x="610" y="290" as="targetPoint" />
            <Array as="points">
              <mxPoint x="830" y="280" />
              <mxPoint x="611" y="280" />
              <mxPoint x="611" y="240" />
            </Array>
          </mxGeometry>
        </mxCell>
        <mxCell id="j2VeNZZgho7HhLa_vhQd-21" value="Download and return to /" style="edgeLabel;html=1;align=center;verticalAlign=middle;resizable=0;points=[];" vertex="1" connectable="0" parent="j2VeNZZgho7HhLa_vhQd-20">
          <mxGeometry x="-0.0061" y="-1" relative="1" as="geometry">
            <mxPoint as="offset" />
          </mxGeometry>
        </mxCell>
        <mxCell id="j2VeNZZgho7HhLa_vhQd-13" value="generate id card" style="rounded=0;whiteSpace=wrap;html=1;" vertex="1" parent="1">
          <mxGeometry x="680" y="190" width="120" height="60" as="geometry" />
        </mxCell>
        <mxCell id="j2VeNZZgho7HhLa_vhQd-14" style="edgeStyle=orthogonalEdgeStyle;rounded=0;orthogonalLoop=1;jettySize=auto;html=1;exitX=1;exitY=0.25;exitDx=0;exitDy=0;entryX=-0.017;entryY=0.367;entryDx=0;entryDy=0;entryPerimeter=0;" edge="1" parent="1" source="j2VeNZZgho7HhLa_vhQd-6" target="j2VeNZZgho7HhLa_vhQd-13">
          <mxGeometry relative="1" as="geometry" />
        </mxCell>
        <mxCell id="j2VeNZZgho7HhLa_vhQd-16" value="form submit&amp;nbsp;" style="edgeLabel;html=1;align=center;verticalAlign=middle;resizable=0;points=[];" vertex="1" connectable="0" parent="j2VeNZZgho7HhLa_vhQd-14">
          <mxGeometry x="-0.0347" relative="1" as="geometry">
            <mxPoint y="1" as="offset" />
          </mxGeometry>
        </mxCell>
        <mxCell id="j2VeNZZgho7HhLa_vhQd-19" value="FC for proof of concept" style="text;html=1;align=center;verticalAlign=middle;whiteSpace=wrap;rounded=0;fontSize=20;" vertex="1" parent="1">
          <mxGeometry x="460" y="110" width="240" height="40" as="geometry" />
        </mxCell>
        <mxCell id="j2VeNZZgho7HhLa_vhQd-22" value="planned FC" style="text;html=1;align=center;verticalAlign=middle;whiteSpace=wrap;rounded=0;fontSize=20;" vertex="1" parent="1">
          <mxGeometry x="460" y="370" width="240" height="40" as="geometry" />
        </mxCell>
        <mxCell id="j2VeNZZgho7HhLa_vhQd-31" style="edgeStyle=orthogonalEdgeStyle;rounded=0;orthogonalLoop=1;jettySize=auto;html=1;exitX=1;exitY=0.5;exitDx=0;exitDy=0;entryX=0;entryY=0.5;entryDx=0;entryDy=0;" edge="1" parent="1" source="j2VeNZZgho7HhLa_vhQd-23" target="j2VeNZZgho7HhLa_vhQd-24">
          <mxGeometry relative="1" as="geometry" />
        </mxCell>
        <mxCell id="j2VeNZZgho7HhLa_vhQd-61" value="pass id, model and status" style="edgeLabel;html=1;align=center;verticalAlign=middle;resizable=0;points=[];" vertex="1" connectable="0" parent="j2VeNZZgho7HhLa_vhQd-31">
          <mxGeometry x="-0.5077" y="-3" relative="1" as="geometry">
            <mxPoint x="53" y="-3" as="offset" />
          </mxGeometry>
        </mxCell>
        <mxCell id="j2VeNZZgho7HhLa_vhQd-36" value="get item details" style="edgeStyle=orthogonalEdgeStyle;rounded=0;orthogonalLoop=1;jettySize=auto;html=1;exitX=0.5;exitY=0;exitDx=0;exitDy=0;entryX=0.25;entryY=0;entryDx=0;entryDy=0;startArrow=classic;startFill=1;" edge="1" parent="1" source="j2VeNZZgho7HhLa_vhQd-23" target="j2VeNZZgho7HhLa_vhQd-28">
          <mxGeometry x="0.2083" relative="1" as="geometry">
            <mxPoint as="offset" />
          </mxGeometry>
        </mxCell>
        <mxCell id="j2VeNZZgho7HhLa_vhQd-23" value="DB of machinas" style="rounded=0;whiteSpace=wrap;html=1;" vertex="1" parent="1">
          <mxGeometry x="90" y="565" width="120" height="60" as="geometry" />
        </mxCell>
        <mxCell id="j2VeNZZgho7HhLa_vhQd-29" style="edgeStyle=orthogonalEdgeStyle;rounded=0;orthogonalLoop=1;jettySize=auto;html=1;exitX=1;exitY=0.25;exitDx=0;exitDy=0;entryX=0;entryY=0.5;entryDx=0;entryDy=0;" edge="1" parent="1" source="j2VeNZZgho7HhLa_vhQd-24" target="j2VeNZZgho7HhLa_vhQd-28">
          <mxGeometry relative="1" as="geometry" />
        </mxCell>
        <mxCell id="j2VeNZZgho7HhLa_vhQd-30" style="edgeStyle=orthogonalEdgeStyle;rounded=0;orthogonalLoop=1;jettySize=auto;html=1;exitX=0;exitY=0.25;exitDx=0;exitDy=0;entryX=1;entryY=0.25;entryDx=0;entryDy=0;" edge="1" parent="1" source="j2VeNZZgho7HhLa_vhQd-24" target="j2VeNZZgho7HhLa_vhQd-23">
          <mxGeometry relative="1" as="geometry" />
        </mxCell>
        <mxCell id="j2VeNZZgho7HhLa_vhQd-33" style="edgeStyle=orthogonalEdgeStyle;rounded=0;orthogonalLoop=1;jettySize=auto;html=1;exitX=1;exitY=0.5;exitDx=0;exitDy=0;entryX=0;entryY=0.5;entryDx=0;entryDy=0;" edge="1" parent="1" source="j2VeNZZgho7HhLa_vhQd-24" target="j2VeNZZgho7HhLa_vhQd-32">
          <mxGeometry relative="1" as="geometry" />
        </mxCell>
        <mxCell id="j2VeNZZgho7HhLa_vhQd-59" value="pass id" style="edgeLabel;html=1;align=center;verticalAlign=middle;resizable=0;points=[];" vertex="1" connectable="0" parent="j2VeNZZgho7HhLa_vhQd-33">
          <mxGeometry x="0.5647" relative="1" as="geometry">
            <mxPoint as="offset" />
          </mxGeometry>
        </mxCell>
        <mxCell id="j2VeNZZgho7HhLa_vhQd-53" style="edgeStyle=orthogonalEdgeStyle;rounded=0;orthogonalLoop=1;jettySize=auto;html=1;exitX=1;exitY=0.75;exitDx=0;exitDy=0;entryX=0;entryY=0.5;entryDx=0;entryDy=0;" edge="1" parent="1" source="j2VeNZZgho7HhLa_vhQd-24" target="j2VeNZZgho7HhLa_vhQd-52">
          <mxGeometry relative="1" as="geometry" />
        </mxCell>
        <mxCell id="j2VeNZZgho7HhLa_vhQd-60" value="pass id and model" style="edgeLabel;html=1;align=center;verticalAlign=middle;resizable=0;points=[];" vertex="1" connectable="0" parent="j2VeNZZgho7HhLa_vhQd-53">
          <mxGeometry x="-0.2368" y="1" relative="1" as="geometry">
            <mxPoint as="offset" />
          </mxGeometry>
        </mxCell>
        <mxCell id="j2VeNZZgho7HhLa_vhQd-24" value="&amp;nbsp;/, list of card that presenting img, model, status, and edit button (do delete with selecting the elem with hold gesture ?)" style="rounded=0;whiteSpace=wrap;html=1;" vertex="1" parent="1">
          <mxGeometry x="440" y="530" width="170" height="130" as="geometry" />
        </mxCell>
        <mxCell id="j2VeNZZgho7HhLa_vhQd-28" value="all items can be click to view the details" style="rounded=0;whiteSpace=wrap;html=1;" vertex="1" parent="1">
          <mxGeometry x="660" y="470" width="120" height="60" as="geometry" />
        </mxCell>
        <mxCell id="j2VeNZZgho7HhLa_vhQd-43" style="edgeStyle=orthogonalEdgeStyle;rounded=0;orthogonalLoop=1;jettySize=auto;html=1;exitX=0.25;exitY=1;exitDx=0;exitDy=0;entryX=0.5;entryY=1;entryDx=0;entryDy=0;strokeColor=default;curved=0;endArrow=classic;endFill=1;flowAnimation=0;startArrow=classic;startFill=1;" edge="1" parent="1" source="j2VeNZZgho7HhLa_vhQd-32" target="j2VeNZZgho7HhLa_vhQd-23">
          <mxGeometry relative="1" as="geometry">
            <Array as="points">
              <mxPoint x="778" y="610" />
              <mxPoint x="688" y="610" />
              <mxPoint x="688" y="710" />
              <mxPoint x="330" y="710" />
            </Array>
          </mxGeometry>
        </mxCell>
        <mxCell id="j2VeNZZgho7HhLa_vhQd-44" value="get item details" style="edgeLabel;html=1;align=center;verticalAlign=middle;resizable=0;points=[];" vertex="1" connectable="0" parent="j2VeNZZgho7HhLa_vhQd-43">
          <mxGeometry x="-0.0009" y="-2" relative="1" as="geometry">
            <mxPoint x="-44" as="offset" />
          </mxGeometry>
        </mxCell>
        <mxCell id="j2VeNZZgho7HhLa_vhQd-47" style="edgeStyle=orthogonalEdgeStyle;rounded=0;orthogonalLoop=1;jettySize=auto;html=1;exitX=1;exitY=0.5;exitDx=0;exitDy=0;entryX=0;entryY=0.5;entryDx=0;entryDy=0;" edge="1" parent="1" source="j2VeNZZgho7HhLa_vhQd-32" target="j2VeNZZgho7HhLa_vhQd-46">
          <mxGeometry relative="1" as="geometry" />
        </mxCell>
        <mxCell id="j2VeNZZgho7HhLa_vhQd-32" value="edit" style="rounded=0;whiteSpace=wrap;html=1;" vertex="1" parent="1">
          <mxGeometry x="750" y="540" width="110" height="50" as="geometry" />
        </mxCell>
        <mxCell id="j2VeNZZgho7HhLa_vhQd-49" style="edgeStyle=orthogonalEdgeStyle;rounded=0;orthogonalLoop=1;jettySize=auto;html=1;exitX=0.5;exitY=1;exitDx=0;exitDy=0;entryX=0.5;entryY=0;entryDx=0;entryDy=0;" edge="1" parent="1" source="j2VeNZZgho7HhLa_vhQd-46" target="j2VeNZZgho7HhLa_vhQd-48">
          <mxGeometry relative="1" as="geometry" />
        </mxCell>
        <mxCell id="j2VeNZZgho7HhLa_vhQd-46" value="done edit" style="rounded=0;whiteSpace=wrap;html=1;" vertex="1" parent="1">
          <mxGeometry x="880" y="545" width="90" height="40" as="geometry" />
        </mxCell>
        <mxCell id="j2VeNZZgho7HhLa_vhQd-50" style="edgeStyle=orthogonalEdgeStyle;rounded=0;orthogonalLoop=1;jettySize=auto;html=1;exitX=0.45;exitY=0.99;exitDx=0;exitDy=0;entryX=0.25;entryY=1;entryDx=0;entryDy=0;exitPerimeter=0;" edge="1" parent="1" source="j2VeNZZgho7HhLa_vhQd-48" target="j2VeNZZgho7HhLa_vhQd-23">
          <mxGeometry relative="1" as="geometry">
            <Array as="points">
              <mxPoint x="934" y="710" />
              <mxPoint x="844" y="710" />
              <mxPoint x="844" y="740" />
              <mxPoint x="300" y="740" />
              <mxPoint x="300" y="650" />
              <mxPoint x="120" y="650" />
            </Array>
          </mxGeometry>
        </mxCell>
        <mxCell id="j2VeNZZgho7HhLa_vhQd-51" value="push (update item details)" style="edgeLabel;html=1;align=center;verticalAlign=middle;resizable=0;points=[];" vertex="1" connectable="0" parent="j2VeNZZgho7HhLa_vhQd-50">
          <mxGeometry x="-0.0213" y="1" relative="1" as="geometry">
            <mxPoint x="-45" y="-1" as="offset" />
          </mxGeometry>
        </mxCell>
        <mxCell id="j2VeNZZgho7HhLa_vhQd-48" value="cek data awal dan data saat selesai sama atau tidak, jika sama maka tidak perlu di save ke db (opsional)" style="rounded=0;whiteSpace=wrap;html=1;" vertex="1" parent="1">
          <mxGeometry x="880" y="600" width="120" height="100" as="geometry" />
        </mxCell>
        <mxCell id="j2VeNZZgho7HhLa_vhQd-52" value="when single select or multiple select. spawn generate id card and delete item buttons (from and on the top ?)&amp;nbsp;" style="rounded=0;whiteSpace=wrap;html=1;" vertex="1" parent="1">
          <mxGeometry x="655" y="760" width="155" height="80" as="geometry" />
        </mxCell>
        <mxCell id="j2VeNZZgho7HhLa_vhQd-57" style="edgeStyle=orthogonalEdgeStyle;rounded=0;orthogonalLoop=1;jettySize=auto;html=1;exitX=1;exitY=0.5;exitDx=0;exitDy=0;entryX=0.5;entryY=1;entryDx=0;entryDy=0;" edge="1" parent="1" source="j2VeNZZgho7HhLa_vhQd-54" target="j2VeNZZgho7HhLa_vhQd-24">
          <mxGeometry relative="1" as="geometry">
            <Array as="points">
              <mxPoint x="1000" y="800" />
              <mxPoint x="1000" y="870" />
              <mxPoint x="525" y="870" />
            </Array>
          </mxGeometry>
        </mxCell>
        <mxCell id="j2VeNZZgho7HhLa_vhQd-58" value="redirect to /" style="edgeLabel;html=1;align=center;verticalAlign=middle;resizable=0;points=[];" vertex="1" connectable="0" parent="j2VeNZZgho7HhLa_vhQd-57">
          <mxGeometry x="-0.0426" y="-1" relative="1" as="geometry">
            <mxPoint as="offset" />
          </mxGeometry>
        </mxCell>
        <mxCell id="j2VeNZZgho7HhLa_vhQd-54" value="/gen-card, will return download propmt pdf with A4 size and the card size is fixed, max 12 items maybe ?" style="rounded=0;whiteSpace=wrap;html=1;" vertex="1" parent="1">
          <mxGeometry x="830" y="760" width="150" height="80" as="geometry" />
        </mxCell>
        <mxCell id="j2VeNZZgho7HhLa_vhQd-55" style="edgeStyle=orthogonalEdgeStyle;rounded=0;orthogonalLoop=1;jettySize=auto;html=1;exitX=1;exitY=0.5;exitDx=0;exitDy=0;entryX=0.007;entryY=0.588;entryDx=0;entryDy=0;entryPerimeter=0;" edge="1" parent="1" source="j2VeNZZgho7HhLa_vhQd-52" target="j2VeNZZgho7HhLa_vhQd-54">
          <mxGeometry relative="1" as="geometry" />
        </mxCell>
      </root>
    </mxGraphModel>
  </diagram>
</mxfile>
